# xmcd
#
# Track frame offsets: 
#        150
#        18604
#        31780
#        49392
#        67666
#        84745
#        101220
#        118052
#        130926
#        148387
#        163464
#        175767
#        191491
#        212297
#        223862
#
# Disc length: 3343 seconds
#
# Revision: 0
# Processed by: cddbd v1.5.2PL0 Copyright (c) Steve Scherf et al.
# Submitted via: ExactAudioCopy v1.1
#
DISCID=e20d0d0f
DTITLE=Sunday Best - Bring Up the Sun
DYEAR=2014
DGENRE=Country
TTITLE0=Count On Me
TTITLE1=Until I Met You
TTITLE2=Smoking Gun
TTITLE3=These Days
TTITLE4=I Wanna Go Home
TTITLE5=Lotta Love
TTITLE6=Wild One
TTITLE7=NOYA
TTITLE8=So Sorry Girl
TTITLE9=Beautiful Mess
TTITLE10=Mean Old Woman
TTITLE11=Thunder
TTITLE12=Lily '14
TTITLE13=Swarpin'
TTITLE14=Painted Blue
EXTD=
EXTT0=
EXTT1=
EXTT2=
EXTT3=
EXTT4=
EXTT5=
EXTT6=
EXTT7=
EXTT8=
EXTT9=
EXTT10=
EXTT11=
EXTT12=
EXTT13=
EXTT14=
PLAYORDER=
